<svg xmlns="http://www.w3.org/2000/svg" viewBox="0 0 200 300">
<defs>
<linearGradient id="g" x1="0" y1="0" x2="0" y2="1">
<stop offset="0%" stop-color="#F5B841"/><stop offset="100%" stop-color="#7A4A12"/>
</linearGradient>
<radialGradient id="wash" cx="50%" cy="45%" r="60%">
<stop offset="0%" stop-color="#A8A29E" stop-opacity="0.45"/>
<stop offset="100%" stop-color="#A8A29E" stop-opacity="0"/>
</radialGradient>
<filter id="soft"><feGaussianBlur stdDeviation="7"/></filter>
</defs>
<ellipse cx="100" cy="150" rx="95" ry="130" fill="url(#wash)" filter="url(#soft)"/>
<rect x="86" y="8" width="28" height="16" rx="3" fill="#221A14"/>
<rect x="90" y="22" width="20" height="36" fill="url(#g)"/>
<path d="M90 58 L74 84 Q62 100 62 122 L62 268 Q62 282 76 282 L124 282 Q138 282 138 268 L138 122 Q138 100 126 84 L110 58 Z" fill="url(#g)" stroke="rgba(255,255,255,0.15)" stroke-width="1.5"/>
<rect x="72" y="148" width="56" height="62" rx="6" fill="rgba(20,16,13,0.85)" stroke="rgba(245,184,65,0.4)" stroke-width="1"/>
<text x="100" y="188" font-family="Georgia, serif" font-size="30" fill="#F5B841" text-anchor="middle">라</text>
<g transform="translate(30,46) scale(1.5)"><path d="M9 22C9 22 11.5 19.3 10 16.5C8.5 13.8 10.5 12 9.5 9.5" stroke="#ADA79E" stroke-width="2.2" fill="none" stroke-linecap="round" opacity="0.65"/><path d="M9.5 9.5C8.7 7.5 10 6 9.6 3.5" stroke="#C7C2BA" stroke-width="1.4" fill="none" stroke-linecap="round" opacity="0.3"/><path d="M13 22C13 22 16 18.7 14 15.3C12 11.9 15 9.8 13.4 6.5" stroke="#DAD5CC" stroke-width="2.6" fill="none" stroke-linecap="round" opacity="0.9"/><path d="M13.4 6.5C12.7 5 13.6 3.7 13 1.8" stroke="#E5E1D9" stroke-width="1.6" fill="none" stroke-linecap="round" opacity="0.35"/><path d="M17 22C17 22 19.5 19.3 18 16.5C16.5 13.8 18.5 12 17.5 9.5" stroke="#ADA79E" stroke-width="1.8" fill="none" stroke-linecap="round" opacity="0.55"/><path d="M17.5 9.5C16.8 7.7 18 6.3 17.6 4" stroke="#C7C2BA" stroke-width="1.1" fill="none" stroke-linecap="round" opacity="0.25"/></g><g transform="translate(150,88) scale(1.3)"><path d="M7 4H17L16.3 19.2C16.2 20.3 15.2 21 14 21H10C8.8 21 7.8 20.3 7.7 19.2L7 4Z" fill="none" stroke="#D9CBB4" stroke-width="1.3" stroke-linejoin="round" opacity="0.85"/><path d="M7.4 12.6C7.4 12.6 9.2 13.9 12 13.4C14.8 12.9 16.4 14.3 16.4 14.3L16.1 19.2C16 20.2 15.1 21 14 21H10C8.9 21 8 20.2 7.9 19.2L7.4 12.6Z" fill="#B45309"/><path d="M8.3 13.4C8.3 13.4 10 14.3 12 13.9" stroke="#F5B841" stroke-width="0.6" fill="none" stroke-linecap="round" opacity="0.6"/><path d="M9.5 4.6C9.5 4.6 9 8 9.8 8.8C10.6 9.6 10 12 9.8 13.4" stroke="#D97706" stroke-width="1.1" fill="none" stroke-linecap="round" opacity="0.9"/><path d="M13 5.1C13 5.1 12.6 8.8 13.4 9.6C14.2 10.4 13.6 12.5 13.5 13.6" stroke="#D97706" stroke-width="1.1" fill="none" stroke-linecap="round" opacity="0.9"/><path d="M15.6 6.6C15.6 6.6 15.3 9 15.9 9.8C16.4 10.5 16 12 15.9 13" stroke="#E89A1C" stroke-width="0.9" fill="none" stroke-linecap="round" opacity="0.7"/><circle cx="11.6" cy="13.6" r="1.6" fill="#FDE68A" opacity="0.55"/><circle cx="11.1" cy="13" r="0.5" fill="#FFFBEB" opacity="0.8"/></g><g transform="translate(26,210) scale(1.15)"><path d="M12 2C12 2 5.5 11.5 5.5 15.8C5.5 19.5 8.4 22 12 22C15.6 22 18.5 19.5 18.5 15.8C18.5 11.5 12 2 12 2Z" fill="#DB8A0F"/><path d="M12 2C12 2 5.5 11.5 5.5 15.8C5.5 17.6 6.2 19.1 7.3 20.2C6.9 18.9 6.9 17.2 8.5 14.5C10.5 11 12 6 12 2Z" fill="#F5B841"/><path d="M10.3 6.3C10.3 6.3 8 10.3 8 13.2" stroke="#FEF3C7" stroke-width="1" fill="none" stroke-linecap="round" opacity="0.9"/><ellipse cx="9.5" cy="12.3" rx="1.15" ry="2.7" fill="#FDE68A" opacity="0.8"/><circle cx="15.3" cy="19.2" r="1" fill="#DB8A0F"/><circle cx="15.6" cy="19" r="0.35" fill="#FEF3C7" opacity="0.9"/><circle cx="13.6" cy="20.9" r="0.6" fill="#DB8A0F" opacity="0.85"/></g>
</svg>